<?xml version="1.0" encoding="utf-8"?>
<!-- Generator: Adobe Illustrator 16.0.0, SVG Export Plug-In . SVG Version: 6.00 Build 0)  -->
<!DOCTYPE svg PUBLIC "-//W3C//DTD SVG 1.1//EN" "http://www.w3.org/Graphics/SVG/1.1/DTD/svg11.dtd">
<svg version="1.1" id="Layer_1" xmlns="http://www.w3.org/2000/svg" xmlns:xlink="http://www.w3.org/1999/xlink" x="0px" y="0px"
	 width="1097.824px" height="221.535px" viewBox="0 0 1097.824 221.535" enable-background="new 0 0 1097.824 221.535"
	 xml:space="preserve">
<rect x="3751.131" y="-326.253" fill="#F4F4F2" width="6" height="0"/>
<g>
	<polygon fill="#FFFFFF" points="481.063,221.535 616.761,221.535 548.912,169.237 	"/>
	<polygon fill="#FFFFFF" points="219.564,84.618 303.431,84.618 329.348,0 109.782,0 135.698,84.618 	"/>
	<polygon fill="#FFFFFF" points="439.129,84.618 371.28,136.916 397.196,221.535 481.063,221.535 506.979,136.916 	"/>
	<polygon fill="#FFFFFF" points="261.498,221.535 397.196,221.535 329.348,169.237 	"/>
	<polygon fill="#FFFFFF" points="41.934,221.535 177.631,221.535 109.782,169.237 	"/>
	<polygon fill="#FFFFFF" points="0,84.618 0,221.535 41.934,221.535 67.85,136.916 	"/>
	<polygon fill="#FFFFFF" points="219.564,84.618 151.715,136.916 177.631,221.535 261.498,221.535 287.414,136.916 	"/>
	<polygon fill="#FFFFFF" points="658.694,84.618 742.561,84.618 768.477,0 548.912,0 574.828,84.618 	"/>
	<polygon fill="#FFFFFF" points="439.129,84.618 522.996,84.618 548.912,0 329.348,0 355.264,84.618 	"/>
	<polygon fill="#FFFFFF" points="1055.891,221.535 1097.824,221.535 1097.824,84.618 1029.975,136.916 	"/>
	<polygon fill="#FFFFFF" points="878.259,84.618 962.125,84.618 988.041,0 768.477,0 794.393,84.618 	"/>
	<polygon fill="#FFFFFF" points="988.041,0 1013.957,84.618 1097.824,84.618 1097.824,0 	"/>
	<polygon fill="#FFFFFF" points="920.192,221.535 1055.891,221.535 988.041,169.237 	"/>
	<polygon fill="#FFFFFF" points="658.694,84.618 590.845,136.916 616.761,221.535 700.628,221.535 726.544,136.916 	"/>
	<polygon fill="#FFFFFF" points="109.782,0 0,0 0,84.618 83.866,84.618 	"/>
	<polygon fill="#FFFFFF" points="878.259,84.618 810.409,136.916 836.326,221.535 920.192,221.535 946.108,136.916 	"/>
	<path fill="#FFFFFF" d="M700.628,221.535h135.698l-67.85-52.298L700.628,221.535z M727.67,217.116h2.663H727.67z"/>
</g>
</svg>
